<?xml version="1.0" encoding="UTF-8"?>
<!DOCTYPE svg PUBLIC "-//W3C//DTD SVG 1.1//EN" "http://www.w3.org/Graphics/SVG/1.1/DTD/svg11.dtd">
<!-- Creator: CorelDRAW -->
<svg xmlns="http://www.w3.org/2000/svg" xml:space="preserve" width="2048px" height="2048px" style="shape-rendering:geometricPrecision; text-rendering:geometricPrecision; image-rendering:optimizeQuality; fill-rule:evenodd; clip-rule:evenodd"
viewBox="0 0 2048 2048"
 xmlns:xlink="http://www.w3.org/1999/xlink">
 <defs>
  <style type="text/css">
   <![CDATA[
    .fil3 {fill:none}
    .fil0 {fill:#01579B}
    .fil1 {fill:#0277BD}
    .fil4 {fill:#757575}
    .fil5 {fill:#81D4FA}
    .fil2 {fill:#BDBDBD}
   ]]>
  </style>
 </defs>
 <g id="Layer_x0020_1">
  <metadata id="CorelCorpID_0Corel-Layer"/>
  <path class="fil0" d="M1430.82 467.847c14.9173,0 28.4681,6.17953 38.315,16.1587 9.70631,9.8315 15.7099,23.3386 15.7099,38.1733l0 1215.49c0,14.8417 -6.00355,28.3453 -15.7063,38.1744 -9.84922,9.98268 -23.4036,16.1563 -38.3185,16.1563l-813.65 0c-14.9091,0 -28.461,-6.17599 -38.3079,-16.1575 -9.69804,-9.83505 -15.7016,-23.3362 -15.7016,-38.1733l0 -1215.47c0,-14.8311 6.00473,-28.3429 15.7039,-38.1839 9.84213,-9.98032 23.3918,-16.1634 38.3055,-16.1634 406.395,0 407.608,0 813.65,0z"/>
  <path class="fil1" d="M1430.82 517.846c-271.217,0 -542.433,0 -813.65,0 -1.07362,0 -1.96181,0.518504 -2.7,1.26614 -0.833859,0.84567 -1.30984,1.88858 -1.30984,3.0815l0 1215.47c0,1.18937 0.468898,2.21929 1.30039,3.0626 0.740552,0.751182 1.63228,1.2685 2.70945,1.2685l813.65 0c1.08662,0 1.98307,-0.519685 2.73071,-1.27795 0.830316,-0.840946 1.29449,-1.86732 1.29449,-3.05315l0 -1215.49c0,-1.18347 -0.467717,-2.21103 -1.29567,-3.04961 -0.746457,-0.757087 -1.6441,-1.28268 -2.72953,-1.28268z"/>
  <path class="fil2" d="M1177.62 467.847l-307.229 0 0 -155.597c0,-14.5441 4.97717,-28.2473 13.9854,-38.5488 9.53859,-10.9039 22.8473,-17.6303 39.0012,-17.6303l204.813 0c17.3162,0 29.8689,7.24371 38.589,19.1126 7.68662,10.4563 10.8402,23.5193 10.8402,37.0666l0 155.597z"/>
  <path class="fil2" d="M903.95 760.85c-1.9937,-13.9406 -2.79095,-25.4528 -2.91142,-34.7894 -0.264567,-20.6906 2.9941,-32.2406 4.48465,-36.4075l0.0295276 0.00944883c6.09213,-18.2386 16.5874,-32.817 27.9839,-44.1863 19.0169,-18.9709 40.9618,-28.8721 47.0386,-31.3689l0.527953 -0.211417c1.70079,-0.655512 4.12441,-1.46221 6.80788,-2.16496 1.38425,-0.36378 2.9563,-0.720473 4.68307,-1.03937l0.448819 -0.109843 4.97126 -0.740552 6.5504 -0.366142 2.50512 -0.140551 1.30394 -0.230315 4.86615 -0.317717c0.255118,0.00354331 0.798426,0.0401575 1.59567,0.113386l16.102 -0.901182 0.269292 3.41693c1.8378,0.36378 3.77008,0.77126 5.78032,1.22835 6.58701,1.49646 14.5311,3.54331 23.4484,6.28111l0.844489 0.211417 15.8539 5.43898 -0.00944883 0.0295276c17.4992,5.34213 30.6059,13.0075 39.7772,19.8862 9.42166,7.06536 15.013,13.4764 17.2288,16.2354 13.0996,15.163 19.3866,33.0331 21.6744,50.8335 2.55,19.8295 -0.056693,39.13 -3.3626,53.5949 2.29725,5.73308 3.59528,13.1032 3.06024,21.8103 -0.387402,6.313 -1.60394,14.1343 -4.05,23.3894 -0.904725,4.61811 -2.28307,8.95394 -4.11378,12.9201 -1.38662,3 -3.03662,5.80158 -4.9441,8.37993 -5.83819,27.7571 -21.2032,56.5323 -41.5607,77.9859 -21.1217,22.2591 -48.1052,37.3677 -76.8319,37.3677 -26.5725,0 -53.5949,-15.4618 -74.5914,-39.0898 -18.3142,-20.6114 -32.687,-48.0756 -38.0622,-76.6949 -2.00197,-2.79213 -3.72638,-5.86772 -5.18741,-9.28229 -1.8626,-4.35118 -3.2374,-9.06142 -4.18347,-14.289 -2.03622,-7.80591 -3.18425,-15.1252 -3.43937,-21.4618 -0.396851,-9.80788 1.41496,-18.5303 5.41182,-25.3406z"/>
  <path class="fil2" d="M824.136 1017.72c8.90198,-11.524 26.791,-21.652 45.0839,-29.6965 15.7465,-6.92481 32.3563,-12.7276 41.7414,-15.9047l0.00472441 0.0141732c18.75,-6.94843 38.3646,-21.7217 38.4213,-21.7642l17.3988 -12.985 16.448 14.2536 1.52835 1.3252 0.0519685 -0.0614174c7.53426,6.4878 15.0272,11.2996 22.2697,14.3457 6.53268,2.74843 13.1457,4.16221 19.65,4.16221l0 0.0933072 0.559843 0 1.29213 0.0106299 0 -0.103937c6.50552,0 13.1173,-1.41378 19.65,-4.16221 7.39843,-3.11221 14.8914,-7.88977 22.2638,-14.2394l1.58032 -1.37008 16.4528 -14.2595 17.3941 13.0961c20.1591,15.1772 44.0823,24.2091 68.8288,33.5528 4.08071,1.54134 8.18741,3.09213 15.4004,5.90079l0.022441 -0.0555119c8.76261,3.34134 16.063,7.30985 21.8965,11.1106 12.3319,8.03505 19.0748,16.6843 19.428,17.1602l0.740552 1.05827c18.3839,27.2988 28.7516,68.4508 34.5803,104.314 5.57126,34.2957 7.11024,64.2119 7.38898,70.226l0 1.4811c-0.178347,12.1677 -2.3504,20.6421 -4.74922,26.3386 -4.17166,9.89056 -10.4008,14.8961 -13.0961,16.7126l-4.12441 2.22166c-32.5477,14.5606 -69.6839,25.1327 -105.744,32.3209 -44.5004,8.87127 -88.0205,12.8055 -119.418,12.8055 -31.3583,0 -74.4119,-3.92008 -118.495,-12.7547 -35.8878,-7.19292 -72.893,-17.7815 -105.515,-32.3717l-4.12559 -2.32677c-2.71063,-1.8378 -8.98347,-6.87048 -13.089,-16.6075 -2.39764,-5.69292 -4.57087,-14.165 -4.75512,-26.3386l0 -1.5874c0.281103,-5.98819 1.81654,-35.7862 7.39607,-70.1197 5.82874,-35.863 16.1965,-77.015 34.5803,-104.314l1.05827 -1.4811z"/>
  <rect class="fil3" x="255.998" y="256" width="1536" height="1536"/>
  <rect class="fil3" width="2048" height="2048"/>
  <circle class="fil4" cx="1024" cy="367.999" r="48"/>
  <g id="_527605384">
   <polygon id="_527599696" class="fil5" points="1299.78,1669.18 748.216,1669.18 748.216,1607.73 1299.78,1607.73 "/>
   <polygon id="_527591488" class="fil5" points="1299.78,1536 748.216,1536 748.216,1474.55 1299.78,1474.55 "/>
  </g>
 </g>
</svg>
