<?xml version="1.0" encoding="utf-8"?>
<!-- Generator: Adobe Illustrator 22.0.1, SVG Export Plug-In . SVG Version: 6.00 Build 0)  -->
<svg version="1.1" id="Layer_1" xmlns="http://www.w3.org/2000/svg" xmlns:xlink="http://www.w3.org/1999/xlink" x="0px" y="0px"
	 viewBox="0 0 256 256" style="enable-background:new 0 0 256 256;" xml:space="preserve">
<style type="text/css">
	.st0{fill:#3A312A;}
	.st1{fill:#FCE8CB;}
	.st2{fill:#8AC5DC;}
	.st3{fill:#ED6E7A;}
	.st4{fill:#D7E057;}
	.st5{fill:#87796F;}
	.st6{fill:#695B51;}
	.st7{fill:#EF6D7A;}
	.st8{fill:#D6DF58;}
	.st9{fill:#6A5C52;}
	.st10{fill:#F16C7A;}
	.st11{fill:#8AC6DD;}
	.st12{fill:#D34E5C;}
	.st13{fill:#B9C239;}
	.st14{fill:#6CA8BF;}
	.st15{fill:#89C4DB;}
	.st16{fill:#D5DE58;}
	.st17{fill:#DECAAD;}
	.st18{fill:#D5DC57;}
	.st19{fill:#8AC3DA;}
	.st20{fill:#D4DB56;}
	.st21{fill:#EA6D7A;}
	.st22{fill:#FAE6CA;}
	.st23{fill:#EB6E7A;}
	.st24{fill:#F8E4C8;}
	.st25{fill:#E96C7A;}
	.st26{fill:#8AC2D9;}
	.st27{fill:#E86C7A;}
	.st28{fill:#8AC1D8;}
	.st29{fill:#D4DA55;}
</style>
<g>
	<g>
		<g>
			<circle class="st3" cx="50.437" cy="62.467" r="33.933"/>
		</g>
	</g>
	<g>
		<g>
			<path class="st0" d="M50.437,27.033c-19.538,0-35.433,15.896-35.433,35.434S30.898,97.9,50.437,97.9
				c19.538,0,35.434-15.895,35.434-35.433S69.975,27.033,50.437,27.033z M50.437,94.9c-17.884,0-32.433-14.549-32.433-32.433
				s14.549-32.434,32.433-32.434c17.884,0,32.434,14.55,32.434,32.434S68.32,94.9,50.437,94.9z"/>
		</g>
	</g>
	<g>
		<g>
			<circle class="st8" cx="127.75" cy="62.467" r="33.933"/>
		</g>
	</g>
	<g>
		<g>
			<path class="st0" d="M127.75,27.033c-19.538,0-35.434,15.896-35.434,35.434S108.212,97.9,127.75,97.9
				s35.434-15.895,35.434-35.433S147.288,27.033,127.75,27.033z M127.75,94.9c-17.884,0-32.434-14.549-32.434-32.433
				s14.55-32.434,32.434-32.434s32.434,14.55,32.434,32.434S145.634,94.9,127.75,94.9z"/>
		</g>
	</g>
	<g>
		<g>
			<circle class="st2" cx="205.067" cy="62.467" r="33.933"/>
		</g>
	</g>
	<g>
		<g>
			<path class="st0" d="M205.066,27.033c-19.538,0-35.433,15.896-35.433,35.434S185.528,97.9,205.066,97.9
				S240.5,82.005,240.5,62.467S224.604,27.033,205.066,27.033z M205.066,94.9c-17.884,0-32.433-14.549-32.433-32.433
				s14.549-32.434,32.433-32.434S237.5,44.583,237.5,62.467S222.95,94.9,205.066,94.9z"/>
		</g>
	</g>
	<g>
		<g>
			<path class="st0" d="M239.5,114.967h-223c-0.829,0-1.5,0.671-1.5,1.5s0.671,1.5,1.5,1.5h223c0.829,0,1.5-0.671,1.5-1.5
				S240.329,114.967,239.5,114.967z"/>
		</g>
	</g>
	<g>
		<g>
			<circle class="st3" cx="50" cy="116.467" r="8"/>
		</g>
	</g>
	<g>
		<g>
			<path class="st0" d="M50,106.967c-5.238,0-9.5,4.262-9.5,9.5s4.262,9.5,9.5,9.5s9.5-4.262,9.5-9.5S55.238,106.967,50,106.967z
				 M50,122.967c-3.584,0-6.5-2.916-6.5-6.5s2.916-6.5,6.5-6.5s6.5,2.916,6.5,6.5S53.584,122.967,50,122.967z"/>
		</g>
	</g>
	<g>
		<g>
			<circle class="st16" cx="128" cy="116.967" r="8"/>
		</g>
	</g>
	<g>
		<g>
			<path class="st0" d="M128,107.467c-5.238,0-9.5,4.262-9.5,9.5s4.262,9.5,9.5,9.5s9.5-4.262,9.5-9.5S133.238,107.467,128,107.467z
				 M128,123.467c-3.584,0-6.5-2.916-6.5-6.5s2.916-6.5,6.5-6.5s6.5,2.916,6.5,6.5S131.584,123.467,128,123.467z"/>
		</g>
	</g>
	<g>
		<g>
			<circle class="st11" cx="206" cy="116.467" r="8"/>
		</g>
	</g>
	<g>
		<g>
			<path class="st0" d="M206,106.967c-5.238,0-9.5,4.262-9.5,9.5s4.262,9.5,9.5,9.5s9.5-4.262,9.5-9.5S211.238,106.967,206,106.967z
				 M206,122.967c-3.584,0-6.5-2.916-6.5-6.5s2.916-6.5,6.5-6.5s6.5,2.916,6.5,6.5S209.584,122.967,206,122.967z"/>
		</g>
	</g>
	<g>
		<g>
			<path class="st3" d="M74.1,136.967H26.9c-5.744,0-10.4,4.656-10.4,10.4v69.699c0,5.744,4.656,10.4,10.4,10.4H74.1
				c5.744,0,10.4-4.656,10.4-10.4v-69.699C84.5,141.623,79.844,136.967,74.1,136.967z"/>
		</g>
	</g>
	<g>
		<g>
			<path class="st0" d="M74.1,135.467H26.9c-6.562,0-11.9,5.338-11.9,11.9v16.861c0,0.829,0.671,1.5,1.5,1.5s1.5-0.671,1.5-1.5
				v-16.861c0-4.908,3.993-8.9,8.9-8.9H74.1c4.908,0,8.9,3.993,8.9,8.9v69.699c0,4.908-3.993,8.9-8.9,8.9H26.9
				c-4.908,0-8.9-3.993-8.9-8.9v-38.627c0-0.829-0.671-1.5-1.5-1.5s-1.5,0.671-1.5,1.5v38.627c0,6.562,5.338,11.9,11.9,11.9H74.1
				c6.562,0,11.9-5.338,11.9-11.9v-69.699C86,140.805,80.662,135.467,74.1,135.467z"/>
		</g>
	</g>
	<g>
		<g>
			<path class="st16" d="M151.6,136.967H104.4c-5.744,0-10.4,4.656-10.4,10.4v69.699c0,5.744,4.656,10.4,10.4,10.4H151.6
				c5.744,0,10.4-4.656,10.4-10.4v-69.699C162,141.623,157.344,136.967,151.6,136.967z"/>
		</g>
	</g>
	<g>
		<g>
			<path class="st0" d="M151.6,135.467H104.4c-6.562,0-11.9,5.338-11.9,11.9v69.699c0,6.562,5.338,11.9,11.9,11.9h19.08
				c0.829,0,1.5-0.671,1.5-1.5s-0.671-1.5-1.5-1.5H104.4c-4.908,0-8.9-3.993-8.9-8.9v-69.699c0-4.908,3.993-8.9,8.9-8.9H151.6
				c4.908,0,8.9,3.993,8.9,8.9v69.699c0,4.908-3.993,8.9-8.9,8.9h-14.414c-0.829,0-1.5,0.671-1.5,1.5s0.671,1.5,1.5,1.5H151.6
				c6.562,0,11.9-5.338,11.9-11.9v-69.699C163.5,140.805,158.162,135.467,151.6,135.467z"/>
		</g>
	</g>
	<g>
		<g>
			<path class="st2" d="M228.6,136.967H181.4c-5.744,0-10.4,4.656-10.4,10.4v69.699c0,5.744,4.656,10.4,10.4,10.4H228.6
				c5.744,0,10.4-4.656,10.4-10.4v-69.699C239,141.623,234.344,136.967,228.6,136.967z"/>
		</g>
	</g>
	<g>
		<g>
			<path class="st0" d="M228.6,135.467H181.4c-6.562,0-11.9,5.338-11.9,11.9v69.699c0,6.562,5.338,11.9,11.9,11.9H228.6
				c6.562,0,11.9-5.338,11.9-11.9v-69.699C240.5,140.805,235.162,135.467,228.6,135.467z M237.5,217.066c0,4.908-3.993,8.9-8.9,8.9
				H181.4c-4.908,0-8.9-3.993-8.9-8.9v-69.699c0-4.908,3.993-8.9,8.9-8.9H228.6c4.908,0,8.9,3.993,8.9,8.9V217.066z"/>
		</g>
	</g>
	<g>
		<g>
			<path class="st14" d="M205.07,30.03c-2.58,0-5.09,0.3-7.5,0.87c14.28,3.4,24.93,16.26,24.93,31.57
				c0,15.3-10.65,28.16-24.93,31.56c2.41,0.57,4.92,0.87,7.5,0.87c17.88,0,32.43-14.55,32.43-32.43
				C237.5,44.58,222.95,30.03,205.07,30.03z"/>
		</g>
	</g>
	<g>
		<g>
			<path class="st14" d="M228.6,138.47h-15c4.91,0,8.9,3.99,8.9,8.9v69.7c0,4.9-3.99,8.9-8.9,8.9h15c4.91,0,8.9-4,8.9-8.9v-69.7
				C237.5,142.46,233.51,138.47,228.6,138.47z"/>
		</g>
	</g>
</g>
</svg>
