<?xml version="1.0" encoding="utf-8"?>
<!-- Generator: Adobe Illustrator 24.0.0, SVG Export Plug-In . SVG Version: 6.00 Build 0)  -->
<svg version="1.1" id="Layer_1" xmlns="http://www.w3.org/2000/svg" xmlns:xlink="http://www.w3.org/1999/xlink" x="0px" y="0px"
	 viewBox="0 0 256 256" style="enable-background:new 0 0 256 256;" xml:space="preserve">
<style type="text/css">
	.st0{fill:#382B73;}
	.st1{fill:#291B4A;}
	.st2{fill:#ED9ABC;}
	.st3{fill:#E54890;}
	.st4{fill:#D3D3D3;}
	.st5{fill:#EBE7F2;}
	.st6{fill:#F9B087;}
	.st7{fill:#FF8639;}
	.st8{fill:#65C1D6;}
	.st9{fill:#149CB2;}
</style>
<g>
	<g>
		<g>
			<g>
				<g>
					<circle class="st0" cx="128" cy="128" r="119.4"/>
				</g>
			</g>
		</g>
	</g>
	<g>
		<g>
			<g>
				<g>
					<path class="st1" d="M50.421,69.63v103.445c0,3.369,2.741,6.109,6.109,6.109h142.938c3.369,0,6.109-2.74,6.109-6.109V69.63
						c0-3.369-2.741-6.109-6.109-6.109H56.531C53.162,63.521,50.421,66.261,50.421,69.63z M200.579,69.63v103.445
						c0,0.611-0.498,1.109-1.109,1.109H56.531c-0.612,0-1.109-0.498-1.109-1.109V69.63c0-0.611,0.498-1.109,1.109-1.109h142.938
						C200.081,68.521,200.579,69.019,200.579,69.63z"/>
				</g>
			</g>
		</g>
		<g>
			<g>
				<g>
					<path class="st1" d="M63.521,78.98v77.188c0,1.381,1.119,2.5,2.5,2.5h123.958c1.381,0,2.5-1.119,2.5-2.5V78.98
						c0-1.381-1.119-2.5-2.5-2.5H66.021C64.64,76.48,63.521,77.6,63.521,78.98z M68.521,81.48h118.958v72.188H68.521V81.48z"/>
				</g>
			</g>
		</g>
		<g>
			<g>
				<g>
					<path class="st1" d="M116.28,185.327c0.083-1.378-0.966-2.563-2.344-2.646c-1.367-0.101-2.563,0.965-2.647,2.344
						c-0.321,5.281-3.792,10.082-10.585,14.663h-7.958c-4.317,0-7.829,3.512-7.829,7.829s3.512,7.829,7.829,7.829h70.508
						c4.317,0,7.829-3.512,7.829-7.829s-3.512-7.829-7.829-7.829h-7.959c-6.792-4.581-10.263-9.382-10.584-14.663
						c-0.084-1.379-1.262-2.418-2.647-2.344c-1.378,0.084-2.427,1.269-2.344,2.646c0.319,5.24,2.782,9.98,7.489,14.36h-38.417
						C113.498,195.308,115.961,190.567,116.28,185.327z M163.254,204.688c1.56,0,2.829,1.27,2.829,2.829s-1.269,2.829-2.829,2.829
						H92.746c-1.56,0-2.829-1.27-2.829-2.829s1.269-2.829,2.829-2.829H163.254z"/>
				</g>
			</g>
		</g>
		<g>
			<g>
				<g>
					<path class="st1" d="M88.229,90.646c-1.381,0-2.5,1.119-2.5,2.5v18.202c0,1.381,1.119,2.5,2.5,2.5h11.302
						c1.381,0,2.5-1.119,2.5-2.5V93.146c0-1.381-1.119-2.5-2.5-2.5H88.229z M97.032,108.849h-6.302V95.646h6.302V108.849z"/>
				</g>
			</g>
		</g>
		<g>
			<g>
				<g>
					<path class="st1" d="M108.334,93.146v18.202c0,1.381,1.119,2.5,2.5,2.5s2.5-1.119,2.5-2.5V93.146c0-1.381-1.119-2.5-2.5-2.5
						S108.334,91.766,108.334,93.146z"/>
				</g>
			</g>
		</g>
		<g>
			<g>
				<g>
					<path class="st1" d="M122.278,90.646c-1.381,0-2.5,1.119-2.5,2.5v18.202c0,1.381,1.119,2.5,2.5,2.5h11.303
						c1.381,0,2.5-1.119,2.5-2.5V93.146c0-1.381-1.119-2.5-2.5-2.5H122.278z M131.081,108.849h-6.303V95.646h6.303V108.849z"/>
				</g>
			</g>
		</g>
		<g>
			<g>
				<g>
					<path class="st1" d="M142.666,93.146v18.202c0,1.381,1.119,2.5,2.5,2.5h11.302c1.381,0,2.5-1.119,2.5-2.5V93.146
						c0-1.381-1.119-2.5-2.5-2.5h-11.302C143.785,90.646,142.666,91.766,142.666,93.146z M147.666,95.646h6.302v13.202h-6.302
						V95.646z"/>
				</g>
			</g>
		</g>
		<g>
			<g>
				<g>
					<path class="st1" d="M170.271,111.349V93.146c0-1.381-1.119-2.5-2.5-2.5s-2.5,1.119-2.5,2.5v18.202c0,1.381,1.119,2.5,2.5,2.5
						S170.271,112.729,170.271,111.349z"/>
				</g>
			</g>
		</g>
		<g>
			<g>
				<g>
					<path class="st1" d="M85.729,123.801v18.202c0,1.381,1.119,2.5,2.5,2.5s2.5-1.119,2.5-2.5v-18.202c0-1.381-1.119-2.5-2.5-2.5
						S85.729,122.42,85.729,123.801z"/>
				</g>
			</g>
		</g>
		<g>
			<g>
				<g>
					<path class="st1" d="M99.532,121.301c-1.381,0-2.5,1.119-2.5,2.5v18.202c0,1.381,1.119,2.5,2.5,2.5h11.302
						c1.381,0,2.5-1.119,2.5-2.5v-18.202c0-1.381-1.119-2.5-2.5-2.5H99.532z M108.334,139.503h-6.302v-13.202h6.302V139.503z"/>
				</g>
			</g>
		</g>
		<g>
			<g>
				<g>
					<path class="st1" d="M119.919,123.801v18.202c0,1.381,1.119,2.5,2.5,2.5s2.5-1.119,2.5-2.5v-18.202c0-1.381-1.119-2.5-2.5-2.5
						S119.919,122.42,119.919,123.801z"/>
				</g>
			</g>
		</g>
		<g>
			<g>
				<g>
					<path class="st1" d="M134.269,121.301c-1.381,0-2.5,1.119-2.5,2.5v18.202c0,1.381,1.119,2.5,2.5,2.5h11.302
						c1.381,0,2.5-1.119,2.5-2.5v-18.202c0-1.381-1.119-2.5-2.5-2.5H134.269z M143.071,139.503h-6.302v-13.202h6.302V139.503z"/>
				</g>
			</g>
		</g>
		<g>
			<g>
				<g>
					<path class="st1" d="M167.771,144.503c1.381,0,2.5-1.119,2.5-2.5v-18.202c0-1.381-1.119-2.5-2.5-2.5h-11.302
						c-1.381,0-2.5,1.119-2.5,2.5v18.202c0,1.381,1.119,2.5,2.5,2.5H167.771z M158.968,126.301h6.302v13.202h-6.302V126.301z"/>
				</g>
			</g>
		</g>
	</g>
	<g>
		<g>
			<g>
				<g>
					<g>
						<path class="st6" d="M116.28,181.327c0.083-1.378-0.966-2.563-2.344-2.646c-1.367-0.097-2.563,0.965-2.647,2.344
							c-0.331,5.438-3.99,10.367-11.187,15.07c-0.926,0.605-1.344,1.746-1.028,2.807c0.315,1.06,1.29,1.786,2.396,1.786h53.06
							c1.106,0,2.081-0.727,2.396-1.786c0.315-1.061-0.103-2.201-1.028-2.807c-7.197-4.703-10.856-9.633-11.187-15.07
							c-0.084-1.379-1.262-2.414-2.647-2.344c-1.378,0.084-2.427,1.269-2.344,2.646c0.319,5.24,2.782,9.98,7.489,14.36h-38.417
							C113.498,191.308,115.961,186.567,116.28,181.327z"/>
					</g>
				</g>
			</g>
			<g>
				<g>
					<g>
						<g>
							<g>
								<path class="st6" d="M50.421,65.63v103.445c0,3.369,2.741,6.109,6.109,6.109h142.938c3.369,0,6.109-2.74,6.109-6.109V65.63
									c0-3.369-2.741-6.109-6.109-6.109H56.531C53.162,59.521,50.421,62.261,50.421,65.63z M200.579,65.63v103.445
									c0,0.611-0.498,1.109-1.109,1.109H56.531c-0.612,0-1.109-0.498-1.109-1.109V65.63c0-0.611,0.498-1.109,1.109-1.109h142.938
									C200.081,64.521,200.579,65.019,200.579,65.63z"/>
							</g>
						</g>
					</g>
					<g>
						<g>
							<g>
								<path class="st4" d="M63.521,74.98v77.188c0,1.381,1.119,2.5,2.5,2.5h123.958c1.381,0,2.5-1.119,2.5-2.5V74.98
									c0-1.381-1.119-2.5-2.5-2.5H66.021C64.64,72.48,63.521,73.6,63.521,74.98z M68.521,77.48h118.958v72.188H68.521V77.48z"/>
							</g>
						</g>
					</g>
				</g>
			</g>
			<g>
				<g>
					<g>
						<path class="st6" d="M84.917,203.517c0,4.317,3.512,7.829,7.829,7.829h70.508c4.317,0,7.829-3.512,7.829-7.829
							s-3.512-7.829-7.829-7.829H92.746C88.429,195.688,84.917,199.199,84.917,203.517z M92.746,200.688h70.508
							c1.56,0,2.829,1.27,2.829,2.829s-1.269,2.829-2.829,2.829H92.746c-1.56,0-2.829-1.27-2.829-2.829
							S91.186,200.688,92.746,200.688z"/>
					</g>
				</g>
			</g>
		</g>
		<g>
			<g>
				<g>
					<g>
						<path class="st7" d="M50.421,65.63v103.445c0,3.369,2.741,6.109,6.109,6.109h142.938c3.369,0,6.109-2.74,6.109-6.109V65.63
							c0-3.369-2.741-6.109-6.109-6.109H56.531C53.162,59.521,50.421,62.261,50.421,65.63z M204.079,65.63v103.445
							c0,2.542-2.068,4.609-4.609,4.609H56.531c-2.542,0-4.609-2.068-4.609-4.609V65.63c0-2.542,2.068-4.609,4.609-4.609h142.938
							C202.011,61.021,204.079,63.088,204.079,65.63z"/>
						<path class="st7" d="M53.921,65.63v103.445c0,1.439,1.171,2.609,2.609,2.609h142.938c1.439,0,2.609-1.171,2.609-2.609V65.63
							c0-1.439-1.171-2.609-2.609-2.609H56.531C55.092,63.021,53.921,64.191,53.921,65.63z M200.579,65.63v103.445
							c0,0.611-0.498,1.109-1.109,1.109H56.531c-0.612,0-1.109-0.498-1.109-1.109V65.63c0-0.611,0.498-1.109,1.109-1.109h142.938
							C200.081,64.521,200.579,65.019,200.579,65.63z"/>
					</g>
				</g>
			</g>
			<g>
				<g>
					<g>
						<path class="st5" d="M63.521,74.98v77.188c0,1.381,1.119,2.5,2.5,2.5h123.958c1.381,0,2.5-1.119,2.5-2.5V74.98
							c0-1.381-1.119-2.5-2.5-2.5H66.021C64.64,72.48,63.521,73.6,63.521,74.98z M190.979,74.98v77.188c0,0.552-0.449,1-1,1H66.021
							c-0.551,0-1-0.448-1-1V74.98c0-0.552,0.449-1,1-1h123.958C190.53,73.98,190.979,74.429,190.979,74.98z"/>
						<path class="st5" d="M68.521,151.169h118.958c0.828,0,1.5-0.672,1.5-1.5V77.48c0-0.828-0.672-1.5-1.5-1.5H68.521
							c-0.828,0-1.5,0.672-1.5,1.5v72.188C67.021,150.497,67.693,151.169,68.521,151.169z M68.521,77.48h118.958v72.188H68.521
							V77.48z"/>
					</g>
				</g>
			</g>
			<g>
				<g>
					<g>
						<path class="st7" d="M88.417,203.517c0,2.387,1.942,4.329,4.329,4.329h70.508c2.387,0,4.329-1.942,4.329-4.329
							s-1.942-4.329-4.329-4.329H92.746C90.359,199.188,88.417,201.13,88.417,203.517z M166.083,203.517
							c0,1.56-1.269,2.829-2.829,2.829H92.746c-1.56,0-2.829-1.27-2.829-2.829s1.269-2.829,2.829-2.829h70.508
							C164.814,200.688,166.083,201.957,166.083,203.517z"/>
						<path class="st7" d="M116.28,181.327c0.083-1.378-0.966-2.563-2.344-2.646c-0.058-0.004-0.116-0.006-0.173-0.006
							c-1.294,0-2.394,1.029-2.475,2.35c-0.321,5.281-3.792,10.082-10.585,14.663h-7.958c-4.317,0-7.829,3.512-7.829,7.829
							s3.512,7.829,7.829,7.829h70.508c4.317,0,7.829-3.512,7.829-7.829s-3.512-7.829-7.829-7.829h-7.959
							c-6.792-4.581-10.263-9.382-10.584-14.663c-0.081-1.334-1.187-2.347-2.514-2.347c-0.044,0-0.088,0.001-0.133,0.003
							c-1.378,0.084-2.427,1.269-2.344,2.646c0.319,5.24,2.782,9.98,7.489,14.36h-38.417
							C113.498,191.308,115.961,186.567,116.28,181.327z M107.769,194.589c-0.451,0.42-0.6,1.073-0.374,1.647
							c0.226,0.574,0.779,0.951,1.396,0.951h38.417c0.617,0,1.17-0.377,1.396-0.951s0.077-1.227-0.374-1.647
							c-4.423-4.116-6.717-8.484-7.013-13.353c-0.033-0.55,0.387-1.025,0.922-1.058l0.057-0.001c0.547,0,0.985,0.403,1.017,0.938
							c0.351,5.777,4.029,10.95,11.243,15.816c0.248,0.167,0.54,0.256,0.839,0.256h7.959c3.49,0,6.329,2.839,6.329,6.329
							s-2.839,6.329-6.329,6.329H92.746c-3.49,0-6.329-2.839-6.329-6.329s2.839-6.329,6.329-6.329h7.958
							c0.299,0,0.591-0.089,0.839-0.256c7.214-4.865,10.892-10.039,11.243-15.815c0.032-0.519,0.47-0.942,0.977-0.942c0,0,0,0,0,0
							l0.082,0.003c0.55,0.033,0.971,0.508,0.938,1.058C114.487,186.105,112.193,190.473,107.769,194.589z"/>
					</g>
				</g>
			</g>
		</g>
		<g>
			<g>
				<g>
					<g>
						<path class="st8" d="M88.229,86.646c-1.381,0-2.5,1.119-2.5,2.5v18.202c0,1.381,1.119,2.5,2.5,2.5h11.302
							c1.381,0,2.5-1.119,2.5-2.5V89.146c0-1.381-1.119-2.5-2.5-2.5H88.229z M97.032,104.849h-6.302V91.646h6.302V104.849z"/>
					</g>
				</g>
			</g>
			<g>
				<g>
					<g>
						<path class="st8" d="M108.334,89.146v18.202c0,1.381,1.119,2.5,2.5,2.5s2.5-1.119,2.5-2.5V89.146c0-1.381-1.119-2.5-2.5-2.5
							S108.334,87.766,108.334,89.146z"/>
					</g>
				</g>
			</g>
			<g>
				<g>
					<g>
						<path class="st8" d="M122.278,86.646c-1.381,0-2.5,1.119-2.5,2.5v18.202c0,1.381,1.119,2.5,2.5,2.5h11.303
							c1.381,0,2.5-1.119,2.5-2.5V89.146c0-1.381-1.119-2.5-2.5-2.5H122.278z M131.081,104.849h-6.303V91.646h6.303V104.849z"/>
					</g>
				</g>
			</g>
			<g>
				<g>
					<g>
						<path class="st8" d="M142.666,89.146v18.202c0,1.381,1.119,2.5,2.5,2.5h11.302c1.381,0,2.5-1.119,2.5-2.5V89.146
							c0-1.381-1.119-2.5-2.5-2.5h-11.302C143.785,86.646,142.666,87.766,142.666,89.146z M147.666,91.646h6.302v13.202h-6.302
							V91.646z"/>
					</g>
				</g>
			</g>
			<g>
				<g>
					<g>
						<path class="st8" d="M170.271,107.349V89.146c0-1.381-1.119-2.5-2.5-2.5s-2.5,1.119-2.5,2.5v18.202c0,1.381,1.119,2.5,2.5,2.5
							S170.271,108.729,170.271,107.349z"/>
					</g>
				</g>
			</g>
			<g>
				<g>
					<g>
						<path class="st8" d="M85.729,119.801v18.202c0,1.381,1.119,2.5,2.5,2.5s2.5-1.119,2.5-2.5v-18.202c0-1.381-1.119-2.5-2.5-2.5
							S85.729,118.42,85.729,119.801z"/>
					</g>
				</g>
			</g>
			<g>
				<g>
					<g>
						<path class="st8" d="M99.532,117.301c-1.381,0-2.5,1.119-2.5,2.5v18.202c0,1.381,1.119,2.5,2.5,2.5h11.302
							c1.381,0,2.5-1.119,2.5-2.5v-18.202c0-1.381-1.119-2.5-2.5-2.5H99.532z M108.334,135.503h-6.302v-13.202h6.302V135.503z"/>
					</g>
				</g>
			</g>
			<g>
				<g>
					<g>
						<path class="st8" d="M119.919,119.801v18.202c0,1.381,1.119,2.5,2.5,2.5s2.5-1.119,2.5-2.5v-18.202c0-1.381-1.119-2.5-2.5-2.5
							S119.919,118.42,119.919,119.801z"/>
					</g>
				</g>
			</g>
			<g>
				<g>
					<g>
						<path class="st8" d="M134.269,117.301c-1.381,0-2.5,1.119-2.5,2.5v18.202c0,1.381,1.119,2.5,2.5,2.5h11.302
							c1.381,0,2.5-1.119,2.5-2.5v-18.202c0-1.381-1.119-2.5-2.5-2.5H134.269z M143.071,135.503h-6.302v-13.202h6.302V135.503z"/>
					</g>
				</g>
			</g>
			<g>
				<g>
					<g>
						<path class="st8" d="M167.771,140.503c1.381,0,2.5-1.119,2.5-2.5v-18.202c0-1.381-1.119-2.5-2.5-2.5h-11.302
							c-1.381,0-2.5,1.119-2.5,2.5v18.202c0,1.381,1.119,2.5,2.5,2.5H167.771z M158.968,122.301h6.302v13.202h-6.302V122.301z"/>
					</g>
				</g>
			</g>
		</g>
		<g>
			<g>
				<g>
					<g>
						<path class="st9" d="M97.032,90.146h-6.302c-0.828,0-1.5,0.672-1.5,1.5v13.202c0,0.828,0.672,1.5,1.5,1.5h6.302
							c0.828,0,1.5-0.672,1.5-1.5V91.646C98.532,90.818,97.86,90.146,97.032,90.146z M97.032,104.849h-6.302V91.646h6.302V104.849z"
							/>
						<path class="st9" d="M88.229,86.646c-1.381,0-2.5,1.119-2.5,2.5v18.202c0,1.381,1.119,2.5,2.5,2.5h11.302
							c1.381,0,2.5-1.119,2.5-2.5V89.146c0-1.381-1.119-2.5-2.5-2.5H88.229z M100.532,89.146v18.202c0,0.552-0.449,1-1,1H88.229
							c-0.551,0-1-0.448-1-1V89.146c0-0.552,0.449-1,1-1h11.302C100.083,88.146,100.532,88.595,100.532,89.146z"/>
					</g>
				</g>
			</g>
			<g>
				<g>
					<g>
						<path class="st9" d="M108.334,89.146v18.202c0,1.381,1.119,2.5,2.5,2.5s2.5-1.119,2.5-2.5V89.146c0-1.381-1.119-2.5-2.5-2.5
							S108.334,87.766,108.334,89.146z M111.834,89.146v18.202c0,0.552-0.449,1-1,1s-1-0.448-1-1V89.146c0-0.552,0.449-1,1-1
							S111.834,88.595,111.834,89.146z"/>
					</g>
				</g>
			</g>
			<g>
				<g>
					<g>
						<path class="st9" d="M131.081,90.146h-6.303c-0.828,0-1.5,0.672-1.5,1.5v13.202c0,0.828,0.672,1.5,1.5,1.5h6.303
							c0.828,0,1.5-0.672,1.5-1.5V91.646C132.581,90.818,131.909,90.146,131.081,90.146z M131.081,104.849h-6.303V91.646h6.303
							V104.849z"/>
						<path class="st9" d="M122.278,86.646c-1.381,0-2.5,1.119-2.5,2.5v18.202c0,1.381,1.119,2.5,2.5,2.5h11.303
							c1.381,0,2.5-1.119,2.5-2.5V89.146c0-1.381-1.119-2.5-2.5-2.5H122.278z M134.581,89.146v18.202c0,0.552-0.449,1-1,1h-11.303
							c-0.551,0-1-0.448-1-1V89.146c0-0.552,0.449-1,1-1h11.303C134.132,88.146,134.581,88.595,134.581,89.146z"/>
					</g>
				</g>
			</g>
			<g>
				<g>
					<g>
						<path class="st9" d="M147.666,106.349h6.302c0.828,0,1.5-0.672,1.5-1.5V91.646c0-0.828-0.672-1.5-1.5-1.5h-6.302
							c-0.828,0-1.5,0.672-1.5,1.5v13.202C146.166,105.677,146.838,106.349,147.666,106.349z M147.666,91.646h6.302v13.202h-6.302
							V91.646z"/>
						<path class="st9" d="M142.666,89.146v18.202c0,1.381,1.119,2.5,2.5,2.5h11.302c1.381,0,2.5-1.119,2.5-2.5V89.146
							c0-1.381-1.119-2.5-2.5-2.5h-11.302C143.785,86.646,142.666,87.766,142.666,89.146z M144.166,89.146c0-0.552,0.449-1,1-1
							h11.302c0.551,0,1,0.448,1,1v18.202c0,0.552-0.449,1-1,1h-11.302c-0.551,0-1-0.448-1-1V89.146z"/>
					</g>
				</g>
			</g>
			<g>
				<g>
					<g>
						<path class="st9" d="M170.271,107.349V89.146c0-1.381-1.119-2.5-2.5-2.5s-2.5,1.119-2.5,2.5v18.202c0,1.381,1.119,2.5,2.5,2.5
							S170.271,108.729,170.271,107.349z M166.771,107.349V89.146c0-0.552,0.449-1,1-1s1,0.448,1,1v18.202c0,0.552-0.449,1-1,1
							S166.771,107.9,166.771,107.349z"/>
					</g>
				</g>
			</g>
			<g>
				<g>
					<g>
						<path class="st9" d="M85.729,119.801v18.202c0,1.381,1.119,2.5,2.5,2.5s2.5-1.119,2.5-2.5v-18.202c0-1.381-1.119-2.5-2.5-2.5
							S85.729,118.42,85.729,119.801z M89.229,119.801v18.202c0,0.552-0.449,1-1,1s-1-0.448-1-1v-18.202c0-0.552,0.449-1,1-1
							S89.229,119.249,89.229,119.801z"/>
					</g>
				</g>
			</g>
			<g>
				<g>
					<g>
						<path class="st9" d="M99.532,117.301c-1.381,0-2.5,1.119-2.5,2.5v18.202c0,1.381,1.119,2.5,2.5,2.5h11.302
							c1.381,0,2.5-1.119,2.5-2.5v-18.202c0-1.381-1.119-2.5-2.5-2.5H99.532z M111.834,119.801v18.202c0,0.552-0.449,1-1,1H99.532
							c-0.551,0-1-0.448-1-1v-18.202c0-0.552,0.449-1,1-1h11.302C111.385,118.801,111.834,119.249,111.834,119.801z"/>
						<path class="st9" d="M108.334,120.801h-6.302c-0.828,0-1.5,0.672-1.5,1.5v13.202c0,0.828,0.672,1.5,1.5,1.5h6.302
							c0.828,0,1.5-0.672,1.5-1.5v-13.202C109.834,121.472,109.162,120.801,108.334,120.801z M108.334,135.503h-6.302v-13.202h6.302
							V135.503z"/>
					</g>
				</g>
			</g>
			<g>
				<g>
					<g>
						<path class="st9" d="M119.919,119.801v18.202c0,1.381,1.119,2.5,2.5,2.5s2.5-1.119,2.5-2.5v-18.202c0-1.381-1.119-2.5-2.5-2.5
							S119.919,118.42,119.919,119.801z M123.419,119.801v18.202c0,0.552-0.449,1-1,1s-1-0.448-1-1v-18.202c0-0.552,0.449-1,1-1
							S123.419,119.249,123.419,119.801z"/>
					</g>
				</g>
			</g>
			<g>
				<g>
					<g>
						<path class="st9" d="M134.269,117.301c-1.381,0-2.5,1.119-2.5,2.5v18.202c0,1.381,1.119,2.5,2.5,2.5h11.302
							c1.381,0,2.5-1.119,2.5-2.5v-18.202c0-1.381-1.119-2.5-2.5-2.5H134.269z M146.571,119.801v18.202c0,0.552-0.449,1-1,1h-11.302
							c-0.551,0-1-0.448-1-1v-18.202c0-0.552,0.449-1,1-1h11.302C146.123,118.801,146.571,119.249,146.571,119.801z"/>
						<path class="st9" d="M143.071,120.801h-6.302c-0.828,0-1.5,0.672-1.5,1.5v13.202c0,0.828,0.672,1.5,1.5,1.5h6.302
							c0.828,0,1.5-0.672,1.5-1.5v-13.202C144.571,121.472,143.9,120.801,143.071,120.801z M143.071,135.503h-6.302v-13.202h6.302
							V135.503z"/>
					</g>
				</g>
			</g>
			<g>
				<g>
					<g>
						<path class="st9" d="M158.968,137.003h6.302c0.828,0,1.5-0.672,1.5-1.5v-13.202c0-0.828-0.672-1.5-1.5-1.5h-6.302
							c-0.828,0-1.5,0.672-1.5,1.5v13.202C157.468,136.331,158.14,137.003,158.968,137.003z M158.968,122.301h6.302v13.202h-6.302
							V122.301z"/>
						<path class="st9" d="M167.771,140.503c1.381,0,2.5-1.119,2.5-2.5v-18.202c0-1.381-1.119-2.5-2.5-2.5h-11.302
							c-1.381,0-2.5,1.119-2.5,2.5v18.202c0,1.381,1.119,2.5,2.5,2.5H167.771z M155.468,138.003v-18.202c0-0.552,0.449-1,1-1h11.302
							c0.551,0,1,0.448,1,1v18.202c0,0.552-0.449,1-1,1h-11.302C155.917,139.003,155.468,138.554,155.468,138.003z"/>
					</g>
				</g>
			</g>
		</g>
	</g>
</g>
</svg>
