<?xml version="1.0" encoding="UTF-8"?>
<svg id="Layer_1" data-name="Layer 1" xmlns="http://www.w3.org/2000/svg" viewBox="0 0 158.05 36.6">
  <defs>
    <style>
      .cls-1 {
        fill-rule: evenodd;
      }

      .cls-1, .cls-2 {
        fill: #201d5a;
      }
    </style>
  </defs>
  <path class="cls-1" d="M51.99,4.5c0,1.95-1.05,3.18-3.42,3.18-.29,0-.66-.02-.99-.09V2.79c0-.33.02-.79.18-1.03.18-.24.59-.26,1.14-.26,1.78,0,3.09,1.05,3.09,3.01h0ZM57.04,15.16l-.35-.04c-.81-.11-1.12-.04-2.02-1.47l-2.26-3.55c-.77-1.19-.92-1.43-1.45-1.82,1.54-.18,4.13-1.16,4.13-3.73,0-2.74-2.66-4.1-6.17-4.1-.9,0-4.54.02-5.95,0v.83l.66.04c.9.07,1.1.17,1.1,1.47v10.86c0,1.29-.2,1.4-1.1,1.47l-.66.04v.83c1.4-.02,5.66-.02,6.36,0v-.83l-.75-.04c-.9-.07-1.01-.15-1.01-1.47v-5.05c.61,0,.83.15,1.65,1.49l2.08,3.55c.29.5,1.34,2,1.51,2.35.37-.02,3.95-.02,4.21,0v-.83h0Z"/>
  <path class="cls-2" d="M64.27,11.86v-6.96c1.1-.13,2.66-.31,2.67-.36-.01.26-.01,9.38-.01,9.38,0,1.14.29,1.24,1.11,1.36l.59.09v.71c-.29-.02-3.49-.02-4.09,0l-.16-2.01-.06.1c-.42.74-1.22,2.09-3.12,2.09-2.61,0-3.28-1.7-3.28-3.1v-6.47c0-.63-.22-.8-.79-.87,0,0-.56-.06-.91-.07v-.71c1.64-.11,3.54-.39,4.44-.51-.01.27-.09,1.65-.09,2.42v5.26c0,1.6.29,2.63,1.49,2.63s2.21-1.37,2.21-2.99h0Z"/>
  <path class="cls-2" d="M72.98,16.25c-1.22,0-2.37-.22-3.48-.64l-.13-2.76h.71c.02,1.52.97,2.62,2.95,2.62,1.36,0,2.3-.79,2.3-1.96,0-1.07-.76-1.64-1.55-1.89l-1.21-.36c-1.86-.54-3.33-1.18-3.33-3.41,0-1.96,2.12-3.34,4.39-3.34,1.78,0,2.8.43,3.25.64l.13,2.62h-.71c-.02-1.61-1.22-2.48-2.68-2.48-1.12,0-1.94.82-1.94,1.89,0,.89.46,1.46,1.35,1.74l1.43.43c1.64.49,3.33,1.14,3.33,3.23,0,2.21-1.79,3.68-4.82,3.68h0Z"/>
  <path class="cls-2" d="M82.61,16.25c-1.22,0-2.37-.22-3.48-.64l-.13-2.76h.71c.02,1.52.97,2.62,2.95,2.62,1.36,0,2.3-.79,2.3-1.96,0-1.07-.76-1.64-1.55-1.89l-1.21-.36c-1.86-.54-3.33-1.18-3.33-3.41,0-1.96,2.12-3.34,4.39-3.34,1.78,0,2.8.43,3.25.64l.13,2.62h-.71c-.02-1.61-1.22-2.48-2.68-2.48-1.12,0-1.94.82-1.94,1.89,0,.89.46,1.46,1.35,1.74l1.43.43c1.64.49,3.33,1.14,3.33,3.23,0,2.21-1.79,3.68-4.82,3.68h0Z"/>
  <path class="cls-1" d="M95.91,9.23c-.12-2.25-.88-3.86-2.35-3.86-1.62,0-2.43,1.85-2.5,3.82l4.85.04h0ZM91.09,10.14c0,1.91.78,5.07,3.15,5.07.84,0,1.45-.18,1.96-.46.26-.14.49-.32.71-.51.22-.19.43-.39.66-.61l.79.6c-.95,1-1.95,2.02-4.55,2.02-3.75,0-5.47-3-5.47-5.98,0-2.69,2.14-5.78,5.29-5.78,3.47,0,5.03,2.64,5.04,5.66h-7.59Z"/>
  <path class="cls-2" d="M105.15,15.23l-.53-.07c-.79-.11-1.05-.2-1.05-1.34V0c-.29.11-2.52.39-4.17.5v.77c.33,0,.75.04.75.04.53.02.75.22.75.81v11.7c0,1.19-.26,1.23-1.05,1.34l-.48.07v.77c.86-.02,5.37-.02,5.79,0v-.77h0Z"/>
  <path class="cls-2" d="M49.12,35.51l-.48-.04c-.9-.07-1.1-.2-1.1-1.47v-10.86c0-1.34.2-1.36,1.1-1.47l.48-.05v-.83c-.88.02-5.13.02-6.01,0v.83l.48.05c.9.11,1.1.13,1.1,1.47v10.86c0,1.27-.2,1.4-1.1,1.47l-.48.04v.83c.88-.02,5.57-.02,6.01,0v-.83h0Z"/>
  <path class="cls-2" d="M62.59,36.35c-.29,0-4.14,0-4.44,0,.07-1.13.09-2.39.09-3.07v-4.48c0-1.61-.36-2.63-1.56-2.63s-2.28,1.37-2.28,2.99v5.01c0,1.16.24,1.33,1.11,1.4l.59.06v.71c-.42-.02-5.18-.02-6.06,0v-.71l.59-.06c.87-.07,1.11-.22,1.11-1.4v-7.21c0-.63-.22-.8-.79-.86,0,0-.56-.06-.91-.07v-.71c1.6-.11,3.68-.38,4.11-.5l.14,2.13.06-.11c.42-.74,1.27-2.08,3.19-2.08,2.5,0,3.34,1.7,3.34,3.1v6.31c0,1.16.24,1.33,1.11,1.4l.59.06v.71h0Z"/>
  <path class="cls-2" d="M72.46,25.91c-.49.07-.77.41-1.1,1.37l-2.48,6.86c-.18.4-.7,1.9-.91,2.38h-1.05c-.09-.14-.25-.54-.44-1-.19-.48-.39-1.02-.53-1.38l-3.07-6.86c-.11-.22-.19-.42-.26-.58-.07-.16-.13-.3-.21-.41-.15-.23-.34-.34-.71-.38l-.62-.06v-.71c.87.02,4.81.02,5.68,0v.71l-.7.06c-.35.02-.53.17-.53.49,0,.28.11.64.23.91l2.39,5.83,2-5.84c.03-.1.08-.23.12-.37.04-.14.07-.29.07-.43,0-.35-.17-.57-.5-.6l-.64-.06v-.71c.44.02,3.45.02,3.89,0v.71l-.62.06h0Z"/>
  <path class="cls-1" d="M80.01,29.5c-.11-2.25-.88-3.86-2.35-3.86-1.63,0-2.43,1.85-2.5,3.82l4.84.04h0ZM75.19,30.42c0,1.91.78,5.07,3.15,5.07.85,0,1.45-.17,1.96-.46.26-.14.49-.32.71-.51.22-.18.43-.39.66-.6l.79.6c-.95,1-1.96,2.02-4.56,2.02-3.75,0-5.47-3-5.47-5.98,0-2.69,2.14-5.78,5.29-5.78,3.47,0,5.03,2.64,5.04,5.66h-7.59Z"/>
  <path class="cls-2" d="M87.63,36.53c-1.22,0-2.37-.22-3.48-.64l-.13-2.76h.71c.01,1.52.97,2.62,2.95,2.62,1.36,0,2.3-.79,2.3-1.96,0-1.08-.76-1.64-1.55-1.89l-1.21-.36c-1.86-.54-3.33-1.18-3.33-3.41,0-1.96,2.12-3.34,4.39-3.34,1.78,0,2.8.43,3.25.64l.13,2.62h-.71c-.02-1.61-1.22-2.48-2.68-2.48-1.12,0-1.94.82-1.94,1.9,0,.89.46,1.46,1.35,1.74l1.43.42c1.64.49,3.33,1.14,3.33,3.23,0,2.21-1.79,3.68-4.82,3.68h0Z"/>
  <path class="cls-2" d="M99.43,35.29c-.24.2-.46.37-.66.53-.21.16-.41.3-.62.42-.42.23-.88.36-1.57.36-1.69,0-2.74-.71-2.74-2.47v-10.75l2.65-2.65v4.54h2.44v.98h-2.44v7.83c0,1,.2,1.52.87,1.52.27,0,.55-.16.8-.35.24-.18.46-.39.63-.54l.64.58h0Z"/>
  <path class="cls-2" d="M119.03,36.35c-.29,0-4.14,0-4.44,0,.06-1.13.09-2.39.09-3.07v-4.48c0-1.61-.33-2.63-1.54-2.63-1.01,0-2.21,1.05-2.21,2.43v5.57c0,1.16.23,1.33,1.11,1.4l.59.06v.71c-.42-.02-4.92-.02-5.79,0v-.71l.5-.06c.72-.07.93-.25.93-1.4v-5.37c0-1.61-.43-2.63-1.63-2.63s-2.21,1.37-2.21,2.99v5.01c0,1.15.16,1.33.93,1.4l.5.06v.71c-.42-.02-4.92-.02-5.79,0v-.71l.59-.06c.87-.07,1.11-.22,1.11-1.4v-7.21c0-.63-.22-.8-.79-.86,0,0-.56-.06-.91-.07v-.71c1.6-.11,3.68-.38,4.12-.5l.14,2.13.06-.11c.42-.74,1.22-2.08,3.12-2.08s2.9.97,3.25,2.06l.03.08.04-.07c.42-.74,1.24-2.06,3.17-2.06,2.5,0,3.32,1.7,3.32,3.1v6.31c0,1.16.24,1.33,1.11,1.4l.59.06v.71h0Z"/>
  <path class="cls-1" d="M126.64,29.5c-.11-2.25-.87-3.86-2.35-3.86-1.62,0-2.43,1.85-2.5,3.82l4.84.04h0ZM121.82,30.42c0,1.91.78,5.07,3.15,5.07.85,0,1.45-.17,1.96-.46.26-.14.49-.32.71-.51.22-.18.43-.39.66-.6l.79.6c-.95,1-1.96,2.02-4.56,2.02-3.75,0-5.47-3-5.47-5.98,0-2.69,2.14-5.78,5.29-5.78,3.47,0,5.03,2.64,5.04,5.66h-7.59Z"/>
  <path class="cls-2" d="M142.41,36.35c-.29,0-4.14,0-4.44,0,.06-1.13.09-2.39.09-3.07v-4.48c0-1.61-.36-2.63-1.56-2.63s-2.28,1.37-2.28,2.99v5.01c0,1.16.24,1.33,1.11,1.4l.59.06v.71c-.42-.02-5.19-.02-6.06,0v-.71l.59-.06c.87-.07,1.11-.22,1.11-1.4v-7.21c0-.63-.22-.8-.79-.86,0,0-.56-.06-.91-.07v-.71c1.6-.11,3.68-.38,4.12-.5l.14,2.13.06-.11c.43-.74,1.27-2.08,3.19-2.08,2.5,0,3.34,1.7,3.34,3.1v6.31c0,1.16.24,1.33,1.11,1.4l.59.06v.71h0Z"/>
  <path class="cls-2" d="M153.23,36.53c-1.22,0-2.37-.22-3.48-.64l-.13-2.76h.71c.02,1.52.97,2.62,2.95,2.62,1.36,0,2.3-.79,2.3-1.96,0-1.08-.76-1.64-1.55-1.89l-1.21-.36c-1.86-.54-3.33-1.18-3.33-3.41,0-1.96,2.12-3.34,4.39-3.34,1.78,0,2.8.43,3.25.64l.13,2.62h-.71c-.02-1.61-1.22-2.48-2.68-2.48-1.12,0-1.94.82-1.94,1.9,0,.89.46,1.46,1.35,1.74l1.43.42c1.64.49,3.33,1.14,3.33,3.23,0,2.21-1.79,3.68-4.82,3.68h0Z"/>
  <path class="cls-2" d="M111.33,15.23l-.53-.07c-.79-.11-1.05-.2-1.05-1.34V0c-.29.11-2.52.39-4.17.5v.77c.33,0,.75.04.75.04.53.02.75.22.75.81v11.7c0,1.19-.26,1.23-1.05,1.34l-.48.07v.77c.86-.02,5.38-.02,5.79,0v-.77h0Z"/>
  <path class="cls-2" d="M148.89,35.29c-.24.2-.46.37-.66.53-.21.16-.41.3-.62.42-.42.23-.88.36-1.57.36-1.69,0-2.74-.71-2.74-2.47v-10.75l2.66-2.65v4.54h2.44v.98h-2.44v7.83c0,1,.2,1.52.87,1.52.27,0,.55-.16.8-.35.24-.18.46-.39.63-.54l.64.58h0Z"/>
  <path class="cls-2" d="M33.69,32.98l.33.67-.33-.67h0ZM12.65,18.52l3.32,5.7-6.94,12.17H0V.46h38.22v35.93h-10.02l3.86-6.7,2,3.96h1.42V3.22H2.74v30.43h1.32l8.59-15.13h0ZM10.97,36.39l12.64-21.96,3.18,5.87-9.17,16.09h-6.65ZM31.02,27.84l-4.82,8.55h-6.59l8.23-14.37,3.18,5.82h0Z"/>
</svg>